<mxfile host="app.diagrams.net" agent="Mozilla/5.0 (Windows NT 10.0; Win64; x64) AppleWebKit/537.36 (KHTML, like Gecko) Chrome/129.0.0.0 Safari/537.36" version="24.7.17">
  <diagram id="C5RBs43oDa-KdzZeNtuy" name="Page-1">
    <mxGraphModel dx="2360" dy="1857" grid="1" gridSize="10" guides="1" tooltips="1" connect="1" arrows="1" fold="1" page="1" pageScale="1" pageWidth="827" pageHeight="1169" math="0" shadow="0">
      <root>
        <mxCell id="WIyWlLk6GJQsqaUBKTNV-0" />
        <mxCell id="WIyWlLk6GJQsqaUBKTNV-1" parent="WIyWlLk6GJQsqaUBKTNV-0" />
        <mxCell id="AbsbwWx8zJ8jb8zRKQNE-26" style="edgeStyle=orthogonalEdgeStyle;rounded=0;orthogonalLoop=1;jettySize=auto;html=1;exitX=0.5;exitY=1;exitDx=0;exitDy=0;entryX=0.5;entryY=0;entryDx=0;entryDy=0;" edge="1" parent="WIyWlLk6GJQsqaUBKTNV-1" source="AbsbwWx8zJ8jb8zRKQNE-0" target="AbsbwWx8zJ8jb8zRKQNE-1">
          <mxGeometry relative="1" as="geometry" />
        </mxCell>
        <mxCell id="AbsbwWx8zJ8jb8zRKQNE-0" value="" style="ellipse;whiteSpace=wrap;html=1;aspect=fixed;fillColor=#000000;" vertex="1" parent="WIyWlLk6GJQsqaUBKTNV-1">
          <mxGeometry x="118" y="41" width="40" height="40" as="geometry" />
        </mxCell>
        <mxCell id="AbsbwWx8zJ8jb8zRKQNE-27" style="edgeStyle=orthogonalEdgeStyle;rounded=0;orthogonalLoop=1;jettySize=auto;html=1;exitX=0.5;exitY=1;exitDx=0;exitDy=0;" edge="1" parent="WIyWlLk6GJQsqaUBKTNV-1" source="AbsbwWx8zJ8jb8zRKQNE-1">
          <mxGeometry relative="1" as="geometry">
            <mxPoint x="138.02564102564105" y="240" as="targetPoint" />
          </mxGeometry>
        </mxCell>
        <mxCell id="AbsbwWx8zJ8jb8zRKQNE-1" value="Sinh viên đăng nhập vào hệ thống" style="rounded=1;whiteSpace=wrap;html=1;" vertex="1" parent="WIyWlLk6GJQsqaUBKTNV-1">
          <mxGeometry x="78" y="131" width="120" height="60" as="geometry" />
        </mxCell>
        <mxCell id="AbsbwWx8zJ8jb8zRKQNE-28" style="edgeStyle=orthogonalEdgeStyle;rounded=0;orthogonalLoop=1;jettySize=auto;html=1;exitX=0.5;exitY=1;exitDx=0;exitDy=0;entryX=0.5;entryY=0;entryDx=0;entryDy=0;" edge="1" parent="WIyWlLk6GJQsqaUBKTNV-1" source="AbsbwWx8zJ8jb8zRKQNE-2" target="AbsbwWx8zJ8jb8zRKQNE-3">
          <mxGeometry relative="1" as="geometry" />
        </mxCell>
        <mxCell id="AbsbwWx8zJ8jb8zRKQNE-2" value="Sinh viên xem thời khoá biểu" style="rounded=1;whiteSpace=wrap;html=1;" vertex="1" parent="WIyWlLk6GJQsqaUBKTNV-1">
          <mxGeometry x="78" y="241" width="120" height="60" as="geometry" />
        </mxCell>
        <mxCell id="AbsbwWx8zJ8jb8zRKQNE-29" style="edgeStyle=orthogonalEdgeStyle;rounded=0;orthogonalLoop=1;jettySize=auto;html=1;exitX=0.5;exitY=1;exitDx=0;exitDy=0;entryX=0.5;entryY=0;entryDx=0;entryDy=0;" edge="1" parent="WIyWlLk6GJQsqaUBKTNV-1" source="AbsbwWx8zJ8jb8zRKQNE-3" target="AbsbwWx8zJ8jb8zRKQNE-4">
          <mxGeometry relative="1" as="geometry" />
        </mxCell>
        <mxCell id="AbsbwWx8zJ8jb8zRKQNE-3" value="Sinh viên chọn lớp học phần" style="rounded=1;whiteSpace=wrap;html=1;" vertex="1" parent="WIyWlLk6GJQsqaUBKTNV-1">
          <mxGeometry x="78" y="351" width="120" height="60" as="geometry" />
        </mxCell>
        <mxCell id="AbsbwWx8zJ8jb8zRKQNE-5" value="&lt;font style=&quot;font-size: 14px;&quot;&gt;Đủ sĩ số&lt;/font&gt;" style="edgeStyle=orthogonalEdgeStyle;rounded=0;orthogonalLoop=1;jettySize=auto;html=1;" edge="1" parent="WIyWlLk6GJQsqaUBKTNV-1" source="AbsbwWx8zJ8jb8zRKQNE-4">
          <mxGeometry relative="1" as="geometry">
            <mxPoint x="428" y="516" as="targetPoint" />
          </mxGeometry>
        </mxCell>
        <mxCell id="AbsbwWx8zJ8jb8zRKQNE-6" value="&lt;font style=&quot;font-size: 14px;&quot;&gt;Chưa đủ sĩ số&lt;/font&gt;" style="edgeStyle=orthogonalEdgeStyle;rounded=0;orthogonalLoop=1;jettySize=auto;html=1;exitX=0.5;exitY=1;exitDx=0;exitDy=0;" edge="1" parent="WIyWlLk6GJQsqaUBKTNV-1" source="AbsbwWx8zJ8jb8zRKQNE-4">
          <mxGeometry relative="1" as="geometry">
            <mxPoint x="138" y="741" as="targetPoint" />
          </mxGeometry>
        </mxCell>
        <mxCell id="AbsbwWx8zJ8jb8zRKQNE-4" value="&lt;font style=&quot;font-size: 16px;&quot;&gt;Sĩ số lớp&lt;/font&gt;" style="rhombus;whiteSpace=wrap;html=1;" vertex="1" parent="WIyWlLk6GJQsqaUBKTNV-1">
          <mxGeometry x="43" y="466" width="190" height="100" as="geometry" />
        </mxCell>
        <mxCell id="AbsbwWx8zJ8jb8zRKQNE-9" style="edgeStyle=orthogonalEdgeStyle;rounded=0;orthogonalLoop=1;jettySize=auto;html=1;exitX=0.5;exitY=0;exitDx=0;exitDy=0;entryX=1;entryY=0.5;entryDx=0;entryDy=0;" edge="1" parent="WIyWlLk6GJQsqaUBKTNV-1" source="AbsbwWx8zJ8jb8zRKQNE-7" target="AbsbwWx8zJ8jb8zRKQNE-3">
          <mxGeometry relative="1" as="geometry" />
        </mxCell>
        <mxCell id="AbsbwWx8zJ8jb8zRKQNE-7" value="Lớp đã đủ sĩ số" style="rounded=1;whiteSpace=wrap;html=1;" vertex="1" parent="WIyWlLk6GJQsqaUBKTNV-1">
          <mxGeometry x="428" y="486" width="120" height="60" as="geometry" />
        </mxCell>
        <mxCell id="AbsbwWx8zJ8jb8zRKQNE-30" style="edgeStyle=orthogonalEdgeStyle;rounded=0;orthogonalLoop=1;jettySize=auto;html=1;exitX=0.5;exitY=1;exitDx=0;exitDy=0;entryX=0.5;entryY=0;entryDx=0;entryDy=0;" edge="1" parent="WIyWlLk6GJQsqaUBKTNV-1" source="AbsbwWx8zJ8jb8zRKQNE-10" target="AbsbwWx8zJ8jb8zRKQNE-11">
          <mxGeometry relative="1" as="geometry" />
        </mxCell>
        <mxCell id="AbsbwWx8zJ8jb8zRKQNE-10" value="Kiểm tra số tín chỉ" style="rounded=1;whiteSpace=wrap;html=1;" vertex="1" parent="WIyWlLk6GJQsqaUBKTNV-1">
          <mxGeometry x="78" y="741" width="120" height="60" as="geometry" />
        </mxCell>
        <mxCell id="AbsbwWx8zJ8jb8zRKQNE-12" value="Tín chỉ &amp;gt;=25" style="edgeStyle=orthogonalEdgeStyle;rounded=0;orthogonalLoop=1;jettySize=auto;html=1;exitX=1;exitY=0.5;exitDx=0;exitDy=0;entryX=0;entryY=0.5;entryDx=0;entryDy=0;" edge="1" parent="WIyWlLk6GJQsqaUBKTNV-1" source="AbsbwWx8zJ8jb8zRKQNE-11" target="AbsbwWx8zJ8jb8zRKQNE-13">
          <mxGeometry relative="1" as="geometry">
            <mxPoint x="420" y="941" as="targetPoint" />
          </mxGeometry>
        </mxCell>
        <mxCell id="AbsbwWx8zJ8jb8zRKQNE-21" value="Tín chỉ &amp;lt; 25" style="edgeStyle=orthogonalEdgeStyle;rounded=0;orthogonalLoop=1;jettySize=auto;html=1;exitX=0.5;exitY=1;exitDx=0;exitDy=0;" edge="1" parent="WIyWlLk6GJQsqaUBKTNV-1" source="AbsbwWx8zJ8jb8zRKQNE-11">
          <mxGeometry relative="1" as="geometry">
            <mxPoint x="138.33333333333348" y="1080" as="targetPoint" />
          </mxGeometry>
        </mxCell>
        <mxCell id="AbsbwWx8zJ8jb8zRKQNE-11" value="&lt;font style=&quot;font-size: 15px;&quot;&gt;Kiểm tra số tín chỉ&lt;/font&gt;" style="rhombus;whiteSpace=wrap;html=1;" vertex="1" parent="WIyWlLk6GJQsqaUBKTNV-1">
          <mxGeometry x="43" y="891" width="190" height="100" as="geometry" />
        </mxCell>
        <mxCell id="AbsbwWx8zJ8jb8zRKQNE-20" style="edgeStyle=orthogonalEdgeStyle;rounded=0;orthogonalLoop=1;jettySize=auto;html=1;exitX=0.5;exitY=0;exitDx=0;exitDy=0;entryX=1;entryY=0.25;entryDx=0;entryDy=0;" edge="1" parent="WIyWlLk6GJQsqaUBKTNV-1" source="AbsbwWx8zJ8jb8zRKQNE-13" target="AbsbwWx8zJ8jb8zRKQNE-3">
          <mxGeometry relative="1" as="geometry" />
        </mxCell>
        <mxCell id="AbsbwWx8zJ8jb8zRKQNE-13" value="Vượt quá số tín chỉ, hãy xoá lớp khác trước khi đăng ký" style="rounded=1;whiteSpace=wrap;html=1;" vertex="1" parent="WIyWlLk6GJQsqaUBKTNV-1">
          <mxGeometry x="354" y="911" width="120" height="60" as="geometry" />
        </mxCell>
        <mxCell id="AbsbwWx8zJ8jb8zRKQNE-23" style="edgeStyle=orthogonalEdgeStyle;rounded=0;orthogonalLoop=1;jettySize=auto;html=1;exitX=1;exitY=0.5;exitDx=0;exitDy=0;" edge="1" parent="WIyWlLk6GJQsqaUBKTNV-1" source="AbsbwWx8zJ8jb8zRKQNE-22">
          <mxGeometry relative="1" as="geometry">
            <mxPoint x="340" y="1110" as="targetPoint" />
          </mxGeometry>
        </mxCell>
        <mxCell id="AbsbwWx8zJ8jb8zRKQNE-22" value="Đăng ký thành công" style="rounded=1;whiteSpace=wrap;html=1;" vertex="1" parent="WIyWlLk6GJQsqaUBKTNV-1">
          <mxGeometry x="78" y="1080" width="120" height="60" as="geometry" />
        </mxCell>
        <mxCell id="AbsbwWx8zJ8jb8zRKQNE-24" value="" style="strokeWidth=2;html=1;shape=mxgraph.flowchart.start_2;whiteSpace=wrap;" vertex="1" parent="WIyWlLk6GJQsqaUBKTNV-1">
          <mxGeometry x="340" y="1080" width="60" height="60" as="geometry" />
        </mxCell>
        <mxCell id="AbsbwWx8zJ8jb8zRKQNE-25" value="" style="strokeWidth=2;html=1;shape=mxgraph.flowchart.start_2;whiteSpace=wrap;fillColor=#000000;" vertex="1" parent="WIyWlLk6GJQsqaUBKTNV-1">
          <mxGeometry x="345" y="1085" width="50" height="50" as="geometry" />
        </mxCell>
      </root>
    </mxGraphModel>
  </diagram>
</mxfile>
